<?xml version="1.0" standalone="no"?><!DOCTYPE svg PUBLIC "-//W3C//DTD SVG 1.1//EN" "http://www.w3.org/Graphics/SVG/1.1/DTD/svg11.dtd"><svg t="1593181928749" class="icon" viewBox="0 0 1024 1024" version="1.1" xmlns="http://www.w3.org/2000/svg" p-id="5069" xmlns:xlink="http://www.w3.org/1999/xlink" width="200" height="200"><defs><style type="text/css"></style></defs><path d="M556.4416 0.09216l467.43552 467.28192-539.96544 539.78112a57.05728 57.05728 0 0 1-80.59904 0L16.46592 620.4928a57.01632 57.01632 0 0 1 0-80.60928z" p-id="5070"></path><path d="M1018.88 475.53536s4.59776-374.51776 4.27008-406.528c-0.21504-20.992-25.69216-66.56-46.53056-66.99008-23.2448-0.4608-429.24032 3.072-429.24032 3.072z" p-id="5071"></path><path d="M741.91872 282.23488m-114.08384 0a114.08384 114.08384 0 1 0 228.16768 0 114.08384 114.08384 0 1 0-228.16768 0Z" fill="#EBBA50" p-id="5072"></path></svg>