<?xml version="1.0" standalone="no"?><!DOCTYPE svg PUBLIC "-//W3C//DTD SVG 1.1//EN" "http://www.w3.org/Graphics/SVG/1.1/DTD/svg11.dtd"><svg t="1593233177732" class="icon" viewBox="0 0 1024 1024" version="1.1" xmlns="http://www.w3.org/2000/svg" p-id="4413" id="mx_n_1593233177733" xmlns:xlink="http://www.w3.org/1999/xlink" width="200" height="200"><defs><style type="text/css"></style></defs><path d="M512 512m-512 0a512 512 0 1 0 1024 0 512 512 0 1 0-1024 0Z" p-id="4414" data-spm-anchor-id="a313x.7781069.0.i2" class="" fill="#333333"></path><path d="M348.16 430.08m20.48 0l286.72 0q20.48 0 20.48 20.48l0 0q0 20.48-20.48 20.48l-286.72 0q-20.48 0-20.48-20.48l0 0q0-20.48 20.48-20.48Z" fill="#ebba50" p-id="4415" data-spm-anchor-id="a313x.7781069.0.i7" class="selected"></path><path d="M402.87232 310.6816a20.48 20.48 0 0 1 28.96896 0l86.8864 86.9376a20.48 20.48 0 0 1-28.96896 28.9792l-86.8864-86.9376a20.48 20.48 0 0 1 0-28.9792z" fill="#ebba50" p-id="4416" data-spm-anchor-id="a313x.7781069.0.i8" class="selected"></path><path d="M391.3216 542.72h243.89632a20.1216 20.1216 0 1 1 0 40.2432H391.3216a20.1216 20.1216 0 1 1 0-40.2432z" fill="#ebba50" p-id="4417" data-spm-anchor-id="a313x.7781069.0.i4" class="selected"></path><path d="M491.52 419.84m20.14208 0l0.67584 0q20.14208 0 20.14208 20.14208l0 266.91584q0 20.14208-20.14208 20.14208l-0.67584 0q-20.14208 0-20.14208-20.14208l0-266.91584q0-20.14208 20.14208-20.14208Z" fill="#ebba50" p-id="4418" data-spm-anchor-id="a313x.7781069.0.i3" class="selected"></path><path d="M507.4944 424.2432a19.77344 19.77344 0 0 0 27.904 0l83.70176-83.456a19.712 19.712 0 0 0-27.904-27.8528l-83.70176 83.456a19.6608 19.6608 0 0 0 0 27.8528z" fill="#ebba50" p-id="4419" data-spm-anchor-id="a313x.7781069.0.i5" class="selected"></path></svg>